<?xml version="1.0" encoding="UTF-8" standalone="no"?>
<svg
   xmlns:dc="http://purl.org/dc/elements/1.1/"
   xmlns:cc="http://creativecommons.org/ns#"
   xmlns:rdf="http://www.w3.org/1999/02/22-rdf-syntax-ns#"
   xmlns:svg="http://www.w3.org/2000/svg"
   xmlns="http://www.w3.org/2000/svg"
   xmlns:sodipodi="http://sodipodi.sourceforge.net/DTD/sodipodi-0.dtd"
   xmlns:inkscape="http://www.inkscape.org/namespaces/inkscape"
   version="1.1"
   id="svg2"
   xml:space="preserve"
   width="250.48"
   height="250.60001"
   viewBox="0 0 250.48 250.60001"
   sodipodi:docname="Linkdin.eps"><metadata
     id="metadata8"><rdf:RDF><cc:Work
         rdf:about=""><dc:format>image/svg+xml</dc:format><dc:type
           rdf:resource="http://purl.org/dc/dcmitype/StillImage" /></cc:Work></rdf:RDF></metadata><defs
     id="defs6" /><sodipodi:namedview
     pagecolor="#ffffff"
     bordercolor="#666666"
     borderopacity="1"
     objecttolerance="10"
     gridtolerance="10"
     guidetolerance="10"
     inkscape:pageopacity="0"
     inkscape:pageshadow="2"
     inkscape:window-width="640"
     inkscape:window-height="480"
     id="namedview4" /><g
     id="g10"
     inkscape:groupmode="layer"
     inkscape:label="ink_ext_XXXXXX"
     transform="matrix(1.3333333,0,0,-1.3333333,0,250.6)"><g
       id="g12"
       transform="scale(0.1)"><path
         d="M 37.2695,0 H 425.117 V 1252.97 H 37.2695 V 0"
         style="fill:#b84844;fill-opacity:1;fill-rule:nonzero;stroke:none"
         id="path14" /><path
         d="m 229.336,1417.03 c 126.691,0 229.336,103.61 229.336,231.26 0,127.65 -102.645,231.17 -229.336,231.17 C 102.621,1879.46 0,1775.94 0,1648.29 0,1520.64 102.621,1417.03 229.336,1417.03"
         style="fill:#b84844;fill-opacity:1;fill-rule:nonzero;stroke:none"
         id="path16" /><path
         d="m 1045.11,657.719 c 0,176.152 81.05,281.097 236.32,281.097 142.58,0 211.14,-100.726 211.14,-281.097 0,-180.457 0,-657.719 0,-657.719 h 386.01 c 0,0 0,457.699 0,793.328 0,335.622 -190.23,497.882 -455.88,497.882 -265.77,0 -377.59,-207.02 -377.59,-207.02 v 168.78 H 673.059 V 0 h 372.051 c 0,0 0,464.699 0,657.719"
         style="fill:#b84844;fill-opacity:1;fill-rule:nonzero;stroke:none"
         id="path18" /></g></g></svg>
