<?xml version="1.0" encoding="UTF-8" standalone="no"?>
<svg
   xmlns:dc="http://purl.org/dc/elements/1.1/"
   xmlns:cc="http://creativecommons.org/ns#"
   xmlns:rdf="http://www.w3.org/1999/02/22-rdf-syntax-ns#"
   xmlns:svg="http://www.w3.org/2000/svg"
   xmlns="http://www.w3.org/2000/svg"
   xmlns:sodipodi="http://sodipodi.sourceforge.net/DTD/sodipodi-0.dtd"
   xmlns:inkscape="http://www.inkscape.org/namespaces/inkscape"
   version="1.1"
   id="svg2"
   xml:space="preserve"
   width="274.10666"
   height="274.17334"
   viewBox="0 0 274.10666 274.17334"
   sodipodi:docname="Whatsapp.eps"><metadata
     id="metadata8"><rdf:RDF><cc:Work
         rdf:about=""><dc:format>image/svg+xml</dc:format><dc:type
           rdf:resource="http://purl.org/dc/dcmitype/StillImage" /></cc:Work></rdf:RDF></metadata><defs
     id="defs6" /><sodipodi:namedview
     pagecolor="#ffffff"
     bordercolor="#666666"
     borderopacity="1"
     objecttolerance="10"
     gridtolerance="10"
     guidetolerance="10"
     inkscape:pageopacity="0"
     inkscape:pageshadow="2"
     inkscape:window-width="640"
     inkscape:window-height="480"
     id="namedview4" /><g
     id="g10"
     inkscape:groupmode="layer"
     inkscape:label="ink_ext_XXXXXX"
     transform="matrix(1.3333333,0,0,-1.3333333,0,274.17333)"><g
       id="g12"
       transform="scale(0.1)"><path
         d="m 1046.56,212.641 c -172.451,0 -332.63,51.031 -466.81,139.379 L 253.738,248.07 359.563,560.859 C 257.98,699.781 197.977,870.32 197.977,1054.61 c 0,27.41 1.429,54.8 4.242,81.72 41.594,426.21 404.453,760.24 844.341,760.24 445.56,0 811.74,-342.54 845.73,-776.28 1.91,-21.76 2.85,-43.47 2.85,-65.68 0,-464.462 -380.82,-841.969 -848.58,-841.969 z m 1008.76,867.479 c -13.7,541.47 -459.73,976.14 -1008.76,976.14 -542.408,0 -984.6577,-424.76 -1008.2709,-957.73 -0.4727,-14.63 -0.9414,-29.29 -0.9414,-43.92 0,-189.469 52.8984,-366.188 144.5743,-517.38 L 0,0 558.949,177.68 C 703.539,98.3008 869.844,52.9297 1046.56,52.9297 c 557.54,0 1009.22,448.4023 1009.22,1001.6803 0,8.51 0,17 -0.46,25.51"
         style="fill:#b84844;fill-opacity:1;fill-rule:evenodd;stroke:none"
         id="path14" /><path
         d="m 1509.14,852.379 c -25.05,12.262 -146.49,71.832 -169.17,79.851 -22.7,8.508 -39.23,12.282 -55.76,-12.289 -16.54,-24.562 -64.25,-79.839 -78.43,-95.91 -14.64,-16.531 -28.8,-18.422 -53.85,-6.14 -24.57,12.289 -104.41,37.789 -198.914,121.91 -73.235,64.719 -123.321,145.039 -137.504,169.609 -14.16,24.57 -1.407,37.79 10.883,50.08 11.324,11.33 24.566,28.83 37.304,42.99 3.328,4.26 6.145,8.04 8.981,11.82 5.672,8.98 9.918,17.49 15.59,29.31 8.511,16.51 4.265,30.69 -1.872,42.98 -6.152,12.29 -55.761,133.24 -76.562,182.39 -20.301,49.12 -41.082,40.64 -55.734,40.64 -14.188,0 -30.719,2.34 -47.254,2.34 -16.532,0 -43.469,-6.15 -66.153,-30.69 -22.675,-24.58 -86.453,-84.12 -86.453,-205.07 0,-28.35 5.203,-56.7 12.754,-83.64 25.043,-86.45 78.906,-157.79 88.359,-170.1 12.266,-16.05 171.04,-272.132 422.385,-370.901 251.83,-97.797 251.83,-65.18 297.2,-60.938 45.35,3.801 146.48,59.059 166.77,116.707 20.82,57.16 20.82,106.313 14.66,116.703 -6.15,9.918 -22.7,16.071 -47.23,28.348"
         style="fill:#b84844;fill-opacity:1;fill-rule:evenodd;stroke:none"
         id="path16" /></g></g></svg>
