<?xml version="1.0" encoding="UTF-8" standalone="no"?>
<svg
   xmlns:dc="http://purl.org/dc/elements/1.1/"
   xmlns:cc="http://creativecommons.org/ns#"
   xmlns:rdf="http://www.w3.org/1999/02/22-rdf-syntax-ns#"
   xmlns:svg="http://www.w3.org/2000/svg"
   xmlns="http://www.w3.org/2000/svg"
   xmlns:sodipodi="http://sodipodi.sourceforge.net/DTD/sodipodi-0.dtd"
   xmlns:inkscape="http://www.inkscape.org/namespaces/inkscape"
   version="1.1"
   id="svg2"
   xml:space="preserve"
   width="274"
   height="274"
   viewBox="0 0 274 274"
   sodipodi:docname="Instagram.eps"><metadata
     id="metadata8"><rdf:RDF><cc:Work
         rdf:about=""><dc:format>image/svg+xml</dc:format><dc:type
           rdf:resource="http://purl.org/dc/dcmitype/StillImage" /></cc:Work></rdf:RDF></metadata><defs
     id="defs6" /><sodipodi:namedview
     pagecolor="#ffffff"
     bordercolor="#666666"
     borderopacity="1"
     objecttolerance="10"
     gridtolerance="10"
     guidetolerance="10"
     inkscape:pageopacity="0"
     inkscape:pageshadow="2"
     inkscape:window-width="640"
     inkscape:window-height="480"
     id="namedview4" /><g
     id="g10"
     inkscape:groupmode="layer"
     inkscape:label="ink_ext_XXXXXX"
     transform="matrix(1.3333333,0,0,-1.3333333,0,274)"><g
       id="g12"
       transform="scale(0.1)"><path
         d="m 1027.51,2055.04 c -279.065,0 -314.049,-1.19 -423.647,-6.18 -109.367,-4.99 -184.05,-22.38 -249.41,-47.77 C 286.871,1974.84 229.574,1939.71 172.445,1882.57 115.32,1825.45 80.1914,1768.14 53.9492,1700.57 28.543,1635.21 11.1563,1560.53 6.1875,1451.16 1.17578,1341.56 0,1306.58 0,1027.51 0,748.449 1.17578,713.461 6.1875,603.859 11.1563,494.5 28.543,419.82 53.9492,354.449 80.1914,286.891 115.32,229.578 172.445,172.461 229.574,115.332 286.871,80.1914 354.453,53.9297 419.813,28.5391 494.496,11.1602 603.863,6.17969 c 109.598,-5 144.582,-6.1679712 423.647,-6.1679712 279.06,0 314.04,1.1679712 423.64,6.1679712 109.38,4.98051 184.05,22.35941 249.43,47.75001 67.56,26.2617 124.87,61.4023 181.99,118.5313 57.13,57.117 92.26,114.43 118.52,181.988 25.39,65.371 42.78,140.051 47.77,249.41 4.99,109.602 6.17,144.59 6.17,423.651 0,279.07 -1.18,314.05 -6.17,423.65 -4.99,109.37 -22.38,184.05 -47.77,249.41 -26.26,67.57 -61.39,124.88 -118.52,182 -57.12,57.14 -114.43,92.27 -181.99,118.52 -65.38,25.39 -140.05,42.78 -249.43,47.77 -109.6,4.99 -144.58,6.18 -423.64,6.18 m 0,-185.14 c 274.37,0 306.86,-1.04 415.2,-5.99 100.17,-4.56 154.59,-21.31 190.81,-35.39 47.96,-18.64 82.19,-40.89 118.14,-76.86 35.97,-35.96 58.21,-70.18 76.86,-118.13 14.08,-36.23 30.81,-90.62 35.4,-190.82 4.92,-108.34 5.98,-140.83 5.98,-415.2 0,-274.369 -1.06,-306.85 -5.98,-415.19 -4.59,-100.211 -21.32,-154.601 -35.4,-190.8 -18.65,-47.981 -40.89,-82.2 -76.86,-118.161 -35.95,-35.937 -70.18,-58.211 -118.14,-76.847 -36.22,-14.082 -90.64,-30.832 -190.81,-35.403 -108.34,-4.918 -140.82,-5.968 -415.2,-5.968 -274.389,0 -306.858,1.05 -415.201,5.968 -100.176,4.571 -154.594,21.321 -190.786,35.403 -47.98,18.636 -82.199,40.91 -118.164,76.847 -35.937,35.961 -58.218,70.18 -76.863,118.161 -14.055,36.199 -30.793,90.589 -35.383,190.8 -4.933,108.34 -5.976,140.821 -5.976,415.19 0,274.37 1.043,306.86 5.976,415.2 4.59,100.2 21.328,154.59 35.383,190.82 18.645,47.95 40.926,82.17 76.863,118.13 35.965,35.97 70.184,58.22 118.164,76.86 36.192,14.08 90.61,30.83 190.786,35.39 108.343,4.95 140.859,5.99 415.201,5.99"
         style="fill:#b84844;fill-opacity:1;fill-rule:nonzero;stroke:none"
         id="path14" /><path
         d="m 1027.51,685.012 c -189.17,0 -342.506,153.347 -342.506,342.498 0,189.17 153.336,342.51 342.506,342.51 189.17,0 342.5,-153.34 342.5,-342.51 0,-189.151 -153.33,-342.498 -342.5,-342.498 m 0,870.148 c -291.393,0 -527.643,-236.23 -527.643,-527.65 0,-291.401 236.25,-527.639 527.643,-527.639 291.42,0 527.65,236.238 527.65,527.639 0,291.42 -236.23,527.65 -527.65,527.65"
         style="fill:#b84844;fill-opacity:1;fill-rule:nonzero;stroke:none"
         id="path16" /><path
         d="m 1699.32,1576.02 c 0,-68.09 -55.21,-123.32 -123.3,-123.32 -68.12,0 -123.33,55.23 -123.33,123.32 0,68.09 55.21,123.3 123.33,123.3 68.09,0 123.3,-55.21 123.3,-123.3"
         style="fill:#b84844;fill-opacity:1;fill-rule:nonzero;stroke:none"
         id="path18" /></g></g></svg>
